<?xml version="1.0" encoding="UTF-8"?><svg id="Calque_2" xmlns="http://www.w3.org/2000/svg" viewBox="0 0 71 71"><defs><style>.cls-1{fill:#8e6f62;}.cls-2{fill:#bca99e;}</style></defs><g id="Calque_1-2"><rect id="Rectangle_8" class="cls-2" width="71" height="71" rx="12" ry="12"/><g id="_1KThdg.tif"><g><path class="cls-1" d="M15.62,16.45c.31-.67,.84-.89,1.57-.87,1.36,.04,2.72,0,4.08,.01,.89,0,1.34,.45,1.35,1.33,0,.32,0,.64,0,1,.16,0,.29,0,.41,0,2.94,0,5.89,0,8.83,0,.26,0,.4-.07,.52-.32,.64-1.3,1.71-2.01,3.16-2,1.45,0,2.51,.72,3.15,2.02,.09,.19,.17,.3,.41,.3,3.03-.01,6.07,0,9.1,0,.06,0,.13,0,.23-.01,0-.37,0-.73,0-1.09,.01-.74,.48-1.22,1.22-1.23,1.52,0,3.03,0,4.55,0,.74,0,1.22,.48,1.23,1.22,0,1.52,0,3.03,0,4.55,0,.74-.48,1.22-1.22,1.23-1.52,0-3.03,0-4.55,0-.75,0-1.22-.49-1.23-1.26,0-.35,0-.69,0-1.06h-4.74c.65,.52,1.31,.99,1.9,1.53,2.95,2.69,4.63,6.03,5.01,10,.03,.28,.12,.42,.39,.54,1.33,.59,2.17,2.08,2,3.47-.2,1.6-1.31,2.85-2.77,3.11-1.55,.28-3.02-.41-3.75-1.74-.98-1.79-.28-3.95,1.57-4.83,.22-.1,.27-.22,.24-.44-.23-2.22-.98-4.26-2.26-6.09-1.82-2.61-4.27-4.33-7.35-5.17-.7,1.22-1.73,1.93-3.15,1.93-1.4,0-2.43-.7-3.13-1.92-1.37,.34-2.64,.9-3.81,1.68-2.79,1.87-4.61,4.43-5.48,7.66-.17,.62-.22,1.27-.34,1.91-.04,.23,.04,.34,.25,.44,1.27,.63,1.98,1.68,2,3.09,.02,1.39-.62,2.46-1.86,3.14-1.74,.95-3.88,.23-4.8-1.61-.82-1.66-.05-3.82,1.67-4.61,.29-.13,.39-.29,.42-.6,.39-3.96,2.06-7.29,5-9.97,.59-.54,1.24-1,1.89-1.52h-4.71c0,.29,0,.6,0,.9,0,.99-.43,1.41-1.43,1.41-1.34,0-2.67-.03-4.01,.01-.72,.02-1.26-.19-1.57-.87v-5.29Zm4.65,1.51h-2.29v2.29h2.29v-2.29Zm30.54,0v2.29h2.28v-2.29h-2.28Zm-15.26-.02c-.63,0-1.17,.52-1.18,1.15,0,.63,.52,1.17,1.15,1.18,.63,0,1.17-.52,1.18-1.15,0-.63-.52-1.17-1.15-1.18Zm-12.85,17.64c.03-.63-.47-1.19-1.11-1.22-.63-.03-1.19,.47-1.22,1.11-.03,.63,.47,1.19,1.11,1.22,.63,.03,1.19-.47,1.22-1.11Zm28.01-.05c0-.63-.52-1.17-1.15-1.17-.63,0-1.17,.52-1.17,1.15,0,.63,.52,1.17,1.15,1.17,.63,0,1.17-.52,1.17-1.15Z"/><path class="cls-1" d="M28.22,55.42c-.87-.53-1.02-.93-.75-2.26,.25-1.28,.85-2.39,1.83-3.26,.22-.2,.28-.39,.23-.67-.5-3.07-1.8-5.73-3.94-7.99-.7-.74-.73-1.16-.17-1.99,3-4.5,5.99-8.99,8.99-13.48,.67-1.01,1.57-1.01,2.25,0,2.99,4.48,5.98,8.97,8.97,13.45,.59,.88,.56,1.27-.18,2.05-2.12,2.26-3.42,4.91-3.91,7.96-.05,.28,.01,.47,.23,.67,1.15,1.04,1.75,2.35,1.92,3.88,.08,.75-.13,1.32-.84,1.65h-14.63Zm15.17-15.37c-2.22-3.33-4.42-6.62-6.61-9.92-.07,2.19-.08,4.34-.06,6.5,0,.12,.13,.29,.25,.35,2.13,1.01,2.73,3.62,1.24,5.43-.92,1.12-2.38,1.52-3.83,1.05-1.32-.43-2.25-1.69-2.34-3.18-.07-1.32,.75-2.69,2-3.25,.24-.11,.34-.23,.34-.51-.01-2.02,0-4.05,0-6.07,0-.1,0-.2,0-.29-.02,0-.05-.02-.07-.02-2.2,3.3-4.4,6.6-6.61,9.92,2.15,2.44,3.51,5.26,4.08,8.4,2.53-.17,5.02-.17,7.54,0,.58-3.16,1.93-5.96,4.08-8.4Zm-2.25,13.02c-.02-.07-.03-.12-.05-.16-.6-1.35-1.63-2.16-3.11-2.21-1.63-.06-3.27-.02-4.9,0-.29,0-.6,.06-.88,.15-1.11,.37-1.86,1.11-2.28,2.23h11.22Zm-5.61-11.73c.63,0,1.17-.52,1.18-1.15,0-.63-.52-1.17-1.15-1.18-.63,0-1.17,.52-1.18,1.15,0,.63,.52,1.17,1.15,1.18Z"/></g></g></g></svg>