<?xml version="1.0" encoding="UTF-8"?><svg id="Calque_2" xmlns="http://www.w3.org/2000/svg" viewBox="0 0 71 71"><defs><style>.cls-1{fill:#999;}.cls-2{fill:#c4c4c4;}</style></defs><g id="Calque_1-2"><rect id="Rectangle_8" class="cls-2" width="71" height="71" rx="12" ry="12"/><g id="Z29ESF.tif"><path class="cls-1" d="M56.11,27.09c-.18,.77-.4,1.55-.98,2.12-.4,.39-.49,.79-.48,1.31,.03,1.27,0,2.54,.02,3.82,0,.16,.11,.33,.19,.48,.24,.4,.57,.76,.72,1.18,.35,.95,.3,1.96,.07,2.93-.22,.92-.92,1.32-2.09,1.29-.7-.02-1.37-.1-1.79-.78-.03-.05-.07-.09-.08-.14-.42-1.46-.55-2.92,.45-4.2,.32-.41,.43-.77,.42-1.25-.02-1.01,0-2.02,0-3.09-.75,.28-1.45,.54-2.15,.8-.74,.28-1.47,.57-2.22,.82-.34,.11-.41,.28-.41,.61,.05,2.44,.15,4.87,.1,7.31-.07,3.48-.74,6.83-2.45,9.91-1.43,2.56-3.4,4.53-6.26,5.44-1.82,.58-3.67,.68-5.55,.42-3.75-.52-6.34-2.66-8.13-5.88-1.67-2.99-2.35-6.25-2.43-9.63-.05-2.51,.04-5.03,.08-7.55,0-.38-.1-.56-.46-.69-1.72-.62-3.45-1.24-5.14-1.94-1.67-.69-2.57-2.02-2.56-3.82,0-1.82,.93-3.16,2.63-3.81,5.03-1.92,10.07-3.82,15.13-5.67,1.98-.72,4-.57,5.97,.16,4.82,1.79,9.64,3.59,14.47,5.38,1.54,.57,2.52,1.62,2.85,3.25,.01,.06,.05,.12,.07,.18v1.04Zm-21.12,6.44c.65-.16,1.28-.24,1.86-.46,4.45-1.64,8.9-3.28,13.33-4.96,.83-.31,1.63-.73,2.39-1.18,.45-.26,.44-.64,0-.94-.44-.3-.93-.56-1.43-.74-4.72-1.77-9.44-3.51-14.16-5.27-1.32-.49-2.62-.5-3.94,0-4.73,1.78-9.46,3.53-14.19,5.31-.45,.17-.89,.39-1.27,.67-.45,.32-.45,.78,0,1.1,.4,.29,.85,.52,1.31,.69,4.7,1.77,9.4,3.53,14.11,5.27,.64,.24,1.32,.34,1.99,.51Zm-9.37,7.15c.04,.63,.07,1.18,.11,1.74,.21,2.36,.8,4.6,2.03,6.65,1.73,2.88,4.18,4.55,7.64,4.55,2.93,0,5.29-1.1,7.04-3.48,1.38-1.87,2.21-3.96,2.56-6.24,.16-1.05,.24-2.11,.36-3.26-3.13,1.82-6.45,2.33-9.87,2.34-3.43,0-6.77-.51-9.88-2.3Zm18.97-6.94c-.19,.06-.31,.1-.44,.15-1.79,.67-3.58,1.33-5.37,2-2.21,.83-4.41,.84-6.62,0-1.79-.68-3.58-1.35-5.37-2.02-.13-.05-.26-.08-.44-.14,0,.96,.03,1.86,0,2.75-.02,.53,.17,.94,.6,1.18,.68,.39,1.37,.79,2.1,1.07,1.73,.65,3.54,.92,5.38,1,2.59,.11,5.14-.14,7.58-1.04,.73-.27,1.41-.69,2.07-1.12,.25-.16,.48-.53,.5-.81,.06-.99,.02-1.98,.02-3.03Z"/></g></g></svg>