<svg xmlns="http://www.w3.org/2000/svg" width="884" height="734" viewBox="0 0 884 734">
  <g id="Groupe_4" data-name="Groupe 4" transform="translate(-241 -923)">
    <path id="Tracé_2" data-name="Tracé 2" d="M373.207,1769.5h631.956v515.007H522.543" transform="translate(26 -735)" fill="none" stroke="#e3e3e3" stroke-linecap="round" stroke-linejoin="round" stroke-width="4" stroke-dasharray="5 8"/>
    <g id="Ellipse_4" data-name="Ellipse 4" transform="translate(241 923)" fill="#fff" stroke="#254741" stroke-width="5">
      <circle cx="111.5" cy="111.5" r="111.5" stroke="none"/>
      <circle cx="111.5" cy="111.5" r="109" fill="none"/>
    </g>
    <g id="Ellipse_5" data-name="Ellipse 5" transform="translate(911 1226)" fill="#e3dede" stroke="#e3dede" stroke-width="5">
      <circle cx="107" cy="107" r="107" stroke="none"/>
      <circle cx="107" cy="107" r="104.5" fill="none"/>
    </g>
    <g id="Ellipse_7" data-name="Ellipse 7" transform="translate(464 1443)" fill="#fff" stroke="#5b5a61" stroke-width="5">
      <circle cx="107" cy="107" r="107" stroke="none"/>
      <circle cx="107" cy="107" r="104.5" fill="none"/>
    </g>
    <g id="Ellipse_6" data-name="Ellipse 6" transform="translate(751 941)" fill="#fff" stroke="#a46f53" stroke-width="5">
      <circle cx="93.5" cy="93.5" r="93.5" stroke="none"/>
      <circle cx="93.5" cy="93.5" r="91" fill="none"/>
    </g>
    <path id="Tracé_9" data-name="Tracé 9" d="M-26.425-11.455v.022h2.381v-.034a2.977,2.977,0,0,1,3.111-2.965,2.778,2.778,0,0,1,2.987,2.583c0,1.269-.517,2.123-2.493,4.178l-5.851,5.963V0h11.084V-2.123H-22.9v-.056l4.054-4.077c2.37-2.426,3.38-3.83,3.38-5.716,0-2.572-2.3-4.537-5.391-4.537C-24.078-16.509-26.425-14.375-26.425-11.455ZM-7.064.3C-3.178.3-.9-2.965-.9-8.131c0-5.132-2.291-8.378-6.166-8.378s-6.188,3.257-6.188,8.389C-13.252-2.954-10.95.3-7.064.3Zm0-2.111c-2.313,0-3.639-2.4-3.639-6.312,0-3.852,1.348-6.278,3.639-6.278s3.627,2.415,3.627,6.278C-3.437-4.2-4.75-1.808-7.064-1.808Zm8.1-9.647v.022H3.414v-.034a2.977,2.977,0,0,1,3.111-2.965,2.778,2.778,0,0,1,2.987,2.583c0,1.269-.517,2.123-2.493,4.178L1.168-1.707V0H12.252V-2.123H4.56v-.056L8.614-6.255c2.37-2.426,3.38-3.83,3.38-5.716,0-2.572-2.3-4.537-5.391-4.537C3.38-16.509,1.033-14.375,1.033-11.455ZM20.395.3C24.28.3,26.56-2.965,26.56-8.131c0-5.132-2.291-8.378-6.166-8.378s-6.188,3.257-6.188,8.389C14.207-2.954,16.509.3,20.395.3Zm0-2.111c-2.313,0-3.639-2.4-3.639-6.312,0-3.852,1.348-6.278,3.639-6.278s3.627,2.415,3.627,6.278C24.022-4.2,22.708-1.808,20.395-1.808Zm-35.4,14.2V12.4h.967V12.39a2.278,2.278,0,0,1,2.388-2.249,2.185,2.185,0,0,1,2.322,2.065c0,.923-.381,1.553-1.89,3.142L-14.956,19.3V20h6.892v-.894h-5.493v-.029L-10.613,16c1.758-1.824,2.278-2.7,2.278-3.853a3.072,3.072,0,0,0-3.289-2.886A3.186,3.186,0,0,0-15.007,12.39Zm12.07,7.778c2.4,0,3.823-2.124,3.823-5.464,0-3.318-1.428-5.442-3.823-5.442s-3.831,2.131-3.831,5.449C-6.768,18.052-5.339,20.168-2.937,20.168Zm0-.879c-1.787,0-2.82-1.78-2.82-4.585,0-2.754,1.055-4.556,2.82-4.556s2.82,1.787,2.82,4.563C-.117,17.51-1.15,19.29-2.937,19.29ZM4.988,20h.967V9.431H4.973c-.315.19-2.556,1.772-2.849,1.956v1.069c.308-.19,2.6-1.8,2.834-1.948h.029Zm4.329,0h1.062l4.841-9.631V9.431H8.335v.894h5.881v.029Z" transform="translate(353 1080)" fill="#2b2b2b"/>
    <path id="Tracé_6" data-name="Tracé 6" d="M-26.425-11.455v.022h2.381v-.034a2.977,2.977,0,0,1,3.111-2.965,2.778,2.778,0,0,1,2.987,2.583c0,1.269-.517,2.123-2.493,4.178l-5.851,5.963V0h11.084V-2.123H-22.9v-.056l4.054-4.077c2.37-2.426,3.38-3.83,3.38-5.716,0-2.572-2.3-4.537-5.391-4.537C-24.078-16.509-26.425-14.375-26.425-11.455ZM-7.064.3C-3.178.3-.9-2.965-.9-8.131c0-5.132-2.291-8.378-6.166-8.378s-6.188,3.257-6.188,8.389C-13.252-2.954-10.95.3-7.064.3Zm0-2.111c-2.313,0-3.639-2.4-3.639-6.312,0-3.852,1.348-6.278,3.639-6.278s3.627,2.415,3.627,6.278C-3.437-4.2-4.75-1.808-7.064-1.808Zm8.1-9.647v.022H3.414v-.034a2.977,2.977,0,0,1,3.111-2.965,2.778,2.778,0,0,1,2.987,2.583c0,1.269-.517,2.123-2.493,4.178L1.168-1.707V0H12.252V-2.123H4.56v-.056L8.614-6.255c2.37-2.426,3.38-3.83,3.38-5.716,0-2.572-2.3-4.537-5.391-4.537C3.38-16.509,1.033-14.375,1.033-11.455ZM20.395.3C24.28.3,26.56-2.965,26.56-8.131c0-5.132-2.291-8.378-6.166-8.378s-6.188,3.257-6.188,8.389C14.207-2.954,16.509.3,20.395.3Zm0-2.111c-2.313,0-3.639-2.4-3.639-6.312,0-3.852,1.348-6.278,3.639-6.278s3.627,2.415,3.627,6.278C24.022-4.2,22.708-1.808,20.395-1.808Z" transform="translate(845 1075)" fill="#2b2b2b"/>
    <path id="Tracé_5" data-name="Tracé 5" d="M-26.229-11.455v.022h2.381v-.034a2.977,2.977,0,0,1,3.111-2.965,2.778,2.778,0,0,1,2.987,2.583c0,1.269-.517,2.123-2.493,4.178l-5.851,5.963V0H-15.01V-2.123H-22.7v-.056l4.054-4.077c2.37-2.426,3.38-3.83,3.38-5.716,0-2.572-2.3-4.537-5.391-4.537C-23.882-16.509-26.229-14.375-26.229-11.455ZM-6.867.3C-2.982.3-.7-2.965-.7-8.131c0-5.132-2.291-8.378-6.166-8.378s-6.188,3.257-6.188,8.389C-13.055-2.954-10.753.3-6.867.3Zm0-2.111c-2.313,0-3.639-2.4-3.639-6.312,0-3.852,1.348-6.278,3.639-6.278S-3.24-11.983-3.24-8.12C-3.24-4.2-4.554-1.808-6.867-1.808Zm8.1-9.647v.022H3.611v-.034a2.977,2.977,0,0,1,3.111-2.965,2.778,2.778,0,0,1,2.987,2.583c0,1.269-.517,2.123-2.493,4.178L1.365-1.707V0H12.449V-2.123H4.756v-.056L8.81-6.255c2.37-2.426,3.38-3.83,3.38-5.716,0-2.572-2.3-4.537-5.391-4.537C3.577-16.509,1.23-14.375,1.23-11.455ZM18.21-7.333h2.021c2.134,0,3.459,1.078,3.459,2.83C23.691-2.92,22.276-1.8,20.3-1.8c-2.044,0-3.324-1.067-3.481-2.617H14.4C14.56-1.617,16.806.3,20.3.3c3.38,0,5.952-1.943,5.952-4.773,0-2.269-1.572-3.762-4.009-3.931v-.045a3.786,3.786,0,0,0,3.335-3.83c0-2.493-2.235-4.234-5.3-4.234-3.212,0-5.357,1.831-5.548,4.672H17.1a2.814,2.814,0,0,1,3.066-2.605c1.92,0,2.954,1,2.954,2.5A2.687,2.687,0,0,1,20.164-9.31H18.21ZM-15.179,12.39V12.4h.967V12.39a2.278,2.278,0,0,1,2.388-2.249A2.185,2.185,0,0,1-9.5,12.207c0,.923-.381,1.553-1.89,3.142L-15.128,19.3V20h6.892v-.894h-5.493v-.029L-10.785,16c1.758-1.824,2.278-2.7,2.278-3.853A3.072,3.072,0,0,0-11.8,9.263,3.186,3.186,0,0,0-15.179,12.39Zm12.07,7.778c2.4,0,3.823-2.124,3.823-5.464,0-3.318-1.428-5.442-3.823-5.442S-6.94,11.394-6.94,14.712C-6.94,18.052-5.511,20.168-3.109,20.168Zm0-.879c-1.787,0-2.82-1.78-2.82-4.585,0-2.754,1.055-4.556,2.82-4.556s2.82,1.787,2.82,4.563C-.289,17.51-1.322,19.29-3.109,19.29Zm5.215-6.9V12.4h.967V12.39A2.278,2.278,0,0,1,5.46,10.142a2.185,2.185,0,0,1,2.322,2.065c0,.923-.381,1.553-1.89,3.142L2.157,19.3V20H9.049v-.894H3.556v-.029L6.5,16c1.758-1.824,2.278-2.7,2.278-3.853A3.072,3.072,0,0,0,5.49,9.263,3.186,3.186,0,0,0,2.106,12.39ZM13.253,20h.967V9.431h-.981c-.315.19-2.556,1.772-2.849,1.956v1.069c.308-.19,2.6-1.8,2.834-1.948h.029Z" transform="translate(1018 1373)" fill="#937e7e"/>
    <path id="Tracé_11" data-name="Tracé 11" d="M-26.335-11.455v.022h2.381v-.034a2.977,2.977,0,0,1,3.111-2.965,2.778,2.778,0,0,1,2.987,2.583c0,1.269-.517,2.123-2.493,4.178L-26.2-1.707V0h11.084V-2.123h-7.693v-.056l4.054-4.077c2.37-2.426,3.38-3.83,3.38-5.716,0-2.572-2.3-4.537-5.391-4.537C-23.988-16.509-26.335-14.375-26.335-11.455ZM-6.974.3C-3.088.3-.809-2.965-.809-8.131c0-5.132-2.291-8.378-6.166-8.378s-6.188,3.257-6.188,8.389C-13.162-2.954-10.86.3-6.974.3Zm0-2.111c-2.313,0-3.639-2.4-3.639-6.312,0-3.852,1.348-6.278,3.639-6.278s3.627,2.415,3.627,6.278C-3.347-4.2-4.661-1.808-6.974-1.808Zm8.1-9.647v.022H3.5v-.034a2.977,2.977,0,0,1,3.111-2.965A2.778,2.778,0,0,1,9.6-11.848c0,1.269-.517,2.123-2.493,4.178L1.258-1.707V0H12.342V-2.123H4.649v-.056L8.7-6.255c2.37-2.426,3.38-3.83,3.38-5.716,0-2.572-2.3-4.537-5.391-4.537C3.47-16.509,1.123-14.375,1.123-11.455ZM20.675.314a5.575,5.575,0,0,0,5.918-5.6,5.224,5.224,0,0,0-5.379-5.357,4.769,4.769,0,0,0-4.447,2.628h-.045c.011-4.077,1.494-6.39,4.043-6.39a3.112,3.112,0,0,1,3.088,2.19h2.516a5.39,5.39,0,0,0-5.582-4.3c-4.054,0-6.48,3.212-6.48,8.636a10.4,10.4,0,0,0,1,4.784A5.74,5.74,0,0,0,20.675.314Zm-.022-2.123a3.4,3.4,0,0,1-3.425-3.448,3.3,3.3,0,0,1,3.448-3.335,3.277,3.277,0,0,1,3.414,3.38A3.4,3.4,0,0,1,20.653-1.808Zm-37,14.2V12.4h.967V12.39A2.278,2.278,0,0,1-13,10.142a2.185,2.185,0,0,1,2.322,2.065c0,.923-.381,1.553-1.89,3.142L-16.3,19.3V20h6.892v-.894H-14.9v-.029L-11.957,16c1.758-1.824,2.278-2.7,2.278-3.853a3.072,3.072,0,0,0-3.289-2.886A3.186,3.186,0,0,0-16.351,12.39Zm12.07,7.778c2.4,0,3.823-2.124,3.823-5.464,0-3.318-1.428-5.442-3.823-5.442s-3.831,2.131-3.831,5.449C-8.112,18.052-6.683,20.168-4.281,20.168Zm0-.879c-1.787,0-2.82-1.78-2.82-4.585,0-2.754,1.055-4.556,2.82-4.556s2.82,1.787,2.82,4.563C-1.461,17.51-2.494,19.29-4.281,19.29Zm5.215-6.9V12.4H1.9V12.39a2.278,2.278,0,0,1,2.388-2.249A2.185,2.185,0,0,1,6.61,12.207c0,.923-.381,1.553-1.89,3.142L.985,19.3V20H7.877v-.894H2.384v-.029L5.328,16c1.758-1.824,2.278-2.7,2.278-3.853A3.072,3.072,0,0,0,4.318,9.263,3.186,3.186,0,0,0,.934,12.39Zm10.518,2.578h1.274c1.7,0,2.739.82,2.739,2.168,0,1.252-1.113,2.153-2.644,2.153s-2.585-.85-2.666-2.029H9.188c.066,1.692,1.509,2.908,3.64,2.908,2.058,0,3.655-1.274,3.655-3.062a2.554,2.554,0,0,0-2.659-2.593v-.029a2.486,2.486,0,0,0,2.2-2.52c0-1.567-1.4-2.7-3.259-2.7A3.1,3.1,0,0,0,9.408,12.1h.967a2.184,2.184,0,0,1,2.351-1.963c1.428,0,2.292.806,2.292,1.948a2.107,2.107,0,0,1-2.336,2.029h-1.23Z" transform="translate(571 1592)" fill="#2b2b2b"/>
    <path id="Tracé_8" data-name="Tracé 8" d="M23.155,11.18a5.977,5.977,0,0,1,3.015,1.995,5.163,5.163,0,0,1,1.1,3.285,6.117,6.117,0,0,1-3.555,5.715A8.841,8.841,0,0,1,19.795,23H9.445V.8h10.32a7,7,0,0,1,3.255.735A5.313,5.313,0,0,1,25.225,3.6,5.982,5.982,0,0,1,26,6.68a4.731,4.731,0,0,1-.735,2.6A5.614,5.614,0,0,1,23.155,11.18Zm-5.01-1.56a3.158,3.158,0,0,0,2.115-.675,2.194,2.194,0,0,0,.8-1.755,2.212,2.212,0,0,0-.78-1.755A3.052,3.052,0,0,0,18.2,4.76h-3.93V9.62Zm.93,9.39a3.474,3.474,0,0,0,2.325-.75,2.468,2.468,0,0,0,.885-1.98,2.435,2.435,0,0,0-.885-1.95,3.427,3.427,0,0,0-2.295-.75h-4.83v5.43Zm17.97-12.6a8.269,8.269,0,0,1,3.69.8,6.026,6.026,0,0,1,2.52,2.235,6.151,6.151,0,0,1,.9,3.33V23h-3.33l-1.17-2.13a6.14,6.14,0,0,1-1.965,1.755,5.449,5.449,0,0,1-2.745.675,5.956,5.956,0,0,1-4.155-1.425,4.8,4.8,0,0,1-1.575-3.735,4.534,4.534,0,0,1,.87-2.73,5.6,5.6,0,0,1,2.46-1.86,9.484,9.484,0,0,1,3.66-.66,16.5,16.5,0,0,1,3.24.33v-.45a2.69,2.69,0,0,0-1.05-2,4.13,4.13,0,0,0-2.55-.7,5.8,5.8,0,0,0-3.63,1.17l-1.98-2.76A10.108,10.108,0,0,1,33.28,6.92,12.655,12.655,0,0,1,37.045,6.41ZM36.265,20a3.048,3.048,0,0,0,2.28-1,3.643,3.643,0,0,0,.96-2.625,14.587,14.587,0,0,0-2.7-.3,3.386,3.386,0,0,0-2,.54,1.68,1.68,0,0,0-.765,1.44,1.808,1.808,0,0,0,.585,1.44A2.408,2.408,0,0,0,36.265,20Zm22.59-8.52a4.167,4.167,0,0,0-2.94-1.08,3.9,3.9,0,0,0-3,1.23,4.577,4.577,0,0,0-1.14,3.24,4.534,4.534,0,0,0,1.14,3.21,3.9,3.9,0,0,0,3,1.23,4.325,4.325,0,0,0,3.45-1.38l2.64,3.09a7.257,7.257,0,0,1-2.745,1.71,10.467,10.467,0,0,1-3.525.57,9.654,9.654,0,0,1-4.59-1.05,7.521,7.521,0,0,1-3.075-2.97,8.8,8.8,0,0,1-1.1-4.44,8.651,8.651,0,0,1,1.11-4.41,7.6,7.6,0,0,1,3.1-2.97,9.81,9.81,0,0,1,4.635-1.05,9.3,9.3,0,0,1,3.015.5A8.671,8.671,0,0,1,61.465,8.33ZM73.375.8h15.51V4.76H78.2V9.77h9.66v3.99H78.2v5.25h10.89V23H73.375Zm26.37,22.5a10.61,10.61,0,0,1-4.44-.9,9.846,9.846,0,0,1-3-1.95l1.8-3.24a9.9,9.9,0,0,0,2.46,1.53,7.421,7.421,0,0,0,2.97.57,4.006,4.006,0,0,0,2.55-.645,1.919,1.919,0,0,0,.78-1.515,2.287,2.287,0,0,0-.3-1.23,2.8,2.8,0,0,0-1.08-.9,14.145,14.145,0,0,0-2.28-.9l-1.56-.48a11.11,11.11,0,0,1-4.1-2.22,5.243,5.243,0,0,1-1.515-4.08,6.48,6.48,0,0,1,1-3.615A6.572,6.572,0,0,1,95.845,1.34a9.763,9.763,0,0,1,4.17-.84,10.381,10.381,0,0,1,3.87.765,9.408,9.408,0,0,1,3,1.785l-2.07,3.33a10.859,10.859,0,0,0-2.28-1.41,6.254,6.254,0,0,0-2.58-.51,3.243,3.243,0,0,0-2.235.645,2.023,2.023,0,0,0-.705,1.545,2.231,2.231,0,0,0,.195.975,2.1,2.1,0,0,0,.825.8,9.414,9.414,0,0,0,1.89.81l1.59.51a11.969,11.969,0,0,1,4.62,2.535,5.891,5.891,0,0,1,1.71,4.515,5.958,5.958,0,0,1-.915,3.15,6.622,6.622,0,0,1-2.745,2.43A9.711,9.711,0,0,1,99.745,23.3Z" transform="translate(295 1013)" fill="#2b2b2b"/>
    <path id="Tracé_7" data-name="Tracé 7" d="M11.23.8h4.83V19.01h9.6V23H11.23Zm17.4,0h4.83V19.01h9.6V23H28.63ZM61.18,7.13a6.5,6.5,0,0,0-2.475-1.965,7.76,7.76,0,0,0-3.315-.7,7.093,7.093,0,0,0-3.675.93A6.332,6.332,0,0,0,49.27,8.015a8.457,8.457,0,0,0-.87,3.915,8.115,8.115,0,0,0,.885,3.84,6.394,6.394,0,0,0,2.49,2.61,7.136,7.136,0,0,0,3.645.93,7.5,7.5,0,0,0,3.66-.84,7.148,7.148,0,0,0,2.61-2.58L64.9,18.8a10.172,10.172,0,0,1-4.08,3.375A13.425,13.425,0,0,1,55.18,23.3a12.566,12.566,0,0,1-6.135-1.47,10.466,10.466,0,0,1-4.17-4.095A11.6,11.6,0,0,1,43.42,11.81a11.46,11.46,0,0,1,1.5-5.9,10.357,10.357,0,0,1,4.2-3.99A13.107,13.107,0,0,1,55.33.5a11.353,11.353,0,0,1,8.85,3.57ZM67.87.8H83.38V4.76H72.7V9.77h9.66v3.99H72.7v5.25H83.59V23H67.87ZM97.24.8a9.172,9.172,0,0,1,4.125.885A6.614,6.614,0,0,1,104.14,4.19a7.046,7.046,0,0,1,.99,3.75,6.566,6.566,0,0,1-1.065,3.69,6.7,6.7,0,0,1-2.955,2.46L106.9,23h-5.64l-4.89-7.89H92.44V23H87.61V.8Zm-.93,10.32a4.186,4.186,0,0,0,2.79-.885,2.861,2.861,0,0,0,1.05-2.295,3.014,3.014,0,0,0-.93-2.31,3.5,3.5,0,0,0-2.49-.87H92.44v6.36Z" transform="translate(787 1013)" fill="#2b2b2b"/>
    <path id="Tracé_4" data-name="Tracé 4" d="M27.4,11.18a5.977,5.977,0,0,1,3.015,1.995,5.163,5.163,0,0,1,1.1,3.285,6.117,6.117,0,0,1-3.555,5.715A8.841,8.841,0,0,1,24.04,23H13.69V.8H24.01a7,7,0,0,1,3.255.735A5.313,5.313,0,0,1,29.47,3.6a5.982,5.982,0,0,1,.78,3.075,4.731,4.731,0,0,1-.735,2.6A5.614,5.614,0,0,1,27.4,11.18ZM22.39,9.62a3.158,3.158,0,0,0,2.115-.675,2.194,2.194,0,0,0,.8-1.755,2.212,2.212,0,0,0-.78-1.755,3.052,3.052,0,0,0-2.07-.675H18.52V9.62Zm.93,9.39a3.474,3.474,0,0,0,2.325-.75,2.468,2.468,0,0,0,.885-1.98,2.435,2.435,0,0,0-.885-1.95,3.427,3.427,0,0,0-2.295-.75H18.52v5.43ZM38.8,23V4.76H32.14V.8H50.26V4.76H43.6V23Zm20.88.3a10.61,10.61,0,0,1-4.44-.9,9.846,9.846,0,0,1-3-1.95l1.8-3.24a9.9,9.9,0,0,0,2.46,1.53,7.421,7.421,0,0,0,2.97.57,4.006,4.006,0,0,0,2.55-.645,1.919,1.919,0,0,0,.78-1.515,2.287,2.287,0,0,0-.3-1.23,2.8,2.8,0,0,0-1.08-.9,14.146,14.146,0,0,0-2.28-.9l-1.56-.48a11.11,11.11,0,0,1-4.1-2.22A5.243,5.243,0,0,1,51.97,7.34a6.48,6.48,0,0,1,1.005-3.615A6.572,6.572,0,0,1,55.78,1.34,9.763,9.763,0,0,1,59.95.5a10.381,10.381,0,0,1,3.87.765,9.408,9.408,0,0,1,3,1.785L64.75,6.38a10.859,10.859,0,0,0-2.28-1.41,6.254,6.254,0,0,0-2.58-.51,3.243,3.243,0,0,0-2.235.645,2.023,2.023,0,0,0-.7,1.545,2.231,2.231,0,0,0,.195.975,2.1,2.1,0,0,0,.825.8,9.415,9.415,0,0,0,1.89.81l1.59.51a11.969,11.969,0,0,1,4.62,2.535,5.891,5.891,0,0,1,1.71,4.515,5.958,5.958,0,0,1-.915,3.15,6.622,6.622,0,0,1-2.745,2.43A9.711,9.711,0,0,1,59.68,23.3Zm26.88,0a10.61,10.61,0,0,1-4.44-.9,9.846,9.846,0,0,1-3-1.95l1.8-3.24a9.9,9.9,0,0,0,2.46,1.53,7.421,7.421,0,0,0,2.97.57,4.006,4.006,0,0,0,2.55-.645,1.919,1.919,0,0,0,.78-1.515,2.287,2.287,0,0,0-.3-1.23,2.8,2.8,0,0,0-1.08-.9,14.145,14.145,0,0,0-2.28-.9l-1.56-.48a11.11,11.11,0,0,1-4.1-2.22A5.243,5.243,0,0,1,78.85,7.34a6.48,6.48,0,0,1,1-3.615A6.572,6.572,0,0,1,82.66,1.34,9.763,9.763,0,0,1,86.83.5a10.381,10.381,0,0,1,3.87.765,9.408,9.408,0,0,1,3,1.785L91.63,6.38a10.859,10.859,0,0,0-2.28-1.41,6.254,6.254,0,0,0-2.58-.51,3.243,3.243,0,0,0-2.235.645A2.023,2.023,0,0,0,83.83,6.65a2.231,2.231,0,0,0,.195.975,2.1,2.1,0,0,0,.825.8,9.414,9.414,0,0,0,1.89.81l1.59.51a11.969,11.969,0,0,1,4.62,2.535,5.891,5.891,0,0,1,1.71,4.515,5.958,5.958,0,0,1-.915,3.15A6.622,6.622,0,0,1,91,22.37,9.711,9.711,0,0,1,86.56,23.3ZM103.24.8V23H98.41V.8Zm15.57,22.5a12.952,12.952,0,0,1-6.165-1.425,10.223,10.223,0,0,1-4.17-4.02A11.775,11.775,0,0,1,106.99,11.9a11.775,11.775,0,0,1,1.485-5.955,10.223,10.223,0,0,1,4.17-4.02,14.016,14.016,0,0,1,12.315,0,10.246,10.246,0,0,1,4.155,4.02A11.775,11.775,0,0,1,130.6,11.9a11.775,11.775,0,0,1-1.485,5.955,10.246,10.246,0,0,1-4.155,4.02A12.863,12.863,0,0,1,118.81,23.3Zm0-3.99a6.758,6.758,0,0,0,3.555-.93,6.416,6.416,0,0,0,2.415-2.61,8.3,8.3,0,0,0,.87-3.87,8.389,8.389,0,0,0-.87-3.885,6.4,6.4,0,0,0-2.415-2.625,6.758,6.758,0,0,0-3.555-.93,6.837,6.837,0,0,0-3.57.93,6.264,6.264,0,0,0-2.415,2.625,8.511,8.511,0,0,0-.855,3.885,8.418,8.418,0,0,0,.855,3.87,6.285,6.285,0,0,0,2.415,2.61A6.837,6.837,0,0,0,118.81,19.31Z" transform="translate(947 1309)" fill="#937e7e"/>
    <path id="Tracé_10" data-name="Tracé 10" d="M59.92.8a11.524,11.524,0,0,1,5.73,1.4,9.811,9.811,0,0,1,3.87,3.9A11.773,11.773,0,0,1,70.9,11.87a11.945,11.945,0,0,1-1.38,5.8,9.761,9.761,0,0,1-3.87,3.93A11.524,11.524,0,0,1,59.92,23H50.83V.8Zm.03,18.21a5.561,5.561,0,0,0,3.12-.885,5.845,5.845,0,0,0,2.1-2.505,8.839,8.839,0,0,0,.75-3.75,8.763,8.763,0,0,0-.75-3.72,5.845,5.845,0,0,0-2.1-2.5,5.561,5.561,0,0,0-3.12-.885H55.66V19.01ZM71.56,23,80.95.8h4.47L94.81,23H89.65l-1.62-4.02H78.31L76.69,23Zm14.97-7.98L83.2,6.77l-3.36,8.25ZM30.04,36.8a11.524,11.524,0,0,1,5.73,1.4,9.811,9.811,0,0,1,3.87,3.9,11.773,11.773,0,0,1,1.38,5.775,11.945,11.945,0,0,1-1.38,5.805,9.761,9.761,0,0,1-3.87,3.93A11.524,11.524,0,0,1,30.04,59H20.95V36.8Zm.03,18.21a5.561,5.561,0,0,0,3.12-.885,5.845,5.845,0,0,0,2.1-2.505,9.675,9.675,0,0,0,0-7.47,5.845,5.845,0,0,0-2.1-2.505,5.561,5.561,0,0,0-3.12-.885H25.78V55.01Zm21.48-12.6a8.661,8.661,0,0,1,4.575,1.155,7.378,7.378,0,0,1,2.85,3.045,8.083,8.083,0,0,1,.855,4.02l-.12,1.86H48.31a3.575,3.575,0,0,0,.375,1.38,3.1,3.1,0,0,0,1.155,1.245,3.862,3.862,0,0,0,2.13.525,3.907,3.907,0,0,0,2.04-.555,4.557,4.557,0,0,0,1.35-1.125l3.6,1.8a7.978,7.978,0,0,1-3.03,2.61,8.611,8.611,0,0,1-3.9.93,9.611,9.611,0,0,1-4.545-1.035A7.4,7.4,0,0,1,44.44,55.34a8.551,8.551,0,0,1-1.08-4.32,9.455,9.455,0,0,1,1.035-4.5,7.482,7.482,0,0,1,2.895-3.03A8.327,8.327,0,0,1,51.55,42.41Zm3.39,6.96a3.442,3.442,0,0,0-.855-2.295A3.069,3.069,0,0,0,51.61,46.07a3.007,3.007,0,0,0-2.4,1.005,3.54,3.54,0,0,0-.9,2.295ZM67.9,59.3a9.4,9.4,0,0,1-3.63-.66,6.289,6.289,0,0,1-2.19-1.32l1.74-2.82a8.131,8.131,0,0,0,4.05,1.14,2.133,2.133,0,0,0,1.425-.33,1.093,1.093,0,0,0,.435-.87,1.2,1.2,0,0,0-.3-.78,2,2,0,0,0-.93-.57l-1.83-.6a17.968,17.968,0,0,1-2.475-.975,4.019,4.019,0,0,1-1.5-1.305,3.811,3.811,0,0,1-.585-2.22,5.7,5.7,0,0,1,.66-2.655,5.238,5.238,0,0,1,2.055-2.1,6.772,6.772,0,0,1,3.5-.825,9.945,9.945,0,0,1,5.85,1.68l-1.95,3.03a6.828,6.828,0,0,0-3.57-1.05,2.438,2.438,0,0,0-1.365.315.982.982,0,0,0-.465.855,1.038,1.038,0,0,0,.375.81,3.183,3.183,0,0,0,1.185.57l1.77.57a7.852,7.852,0,0,1,3.27,1.875,4.462,4.462,0,0,1,1.05,3.165,4.391,4.391,0,0,1-.855,2.685,5.406,5.406,0,0,1-2.34,1.77A8.753,8.753,0,0,1,67.9,59.3ZM79.96,40.52A2.66,2.66,0,0,1,78,39.755a2.847,2.847,0,0,1,.015-3.9,2.673,2.673,0,0,1,1.95-.765,2.623,2.623,0,0,1,1.935.765,2.66,2.66,0,0,1,.765,1.965,2.617,2.617,0,0,1-2.7,2.7Zm-2.34,2.19h4.65V59H77.62Zm25.2,14.67a8.18,8.18,0,0,1-1.215,4.47,8.08,8.08,0,0,1-3.45,2.985A11.9,11.9,0,0,1,92.98,65.9a14.866,14.866,0,0,1-4.05-.525,9.58,9.58,0,0,1-3.18-1.515l.99-3.63a8.993,8.993,0,0,0,2.82,1.29,13.1,13.1,0,0,0,3.3.39A5.7,5.7,0,0,0,96.6,60.74a4.187,4.187,0,0,0,1.545-3.12v-.84A5.653,5.653,0,0,1,93.1,59.3a7.4,7.4,0,0,1-3.93-1.08,7.68,7.68,0,0,1-2.805-3.03,9.26,9.26,0,0,1-1.035-4.41,9.039,9.039,0,0,1,1.02-4.335A7.475,7.475,0,0,1,93.1,42.41a6.422,6.422,0,0,1,3.045.69,5.652,5.652,0,0,1,2.145,2.01l1.23-2.4h3.3Zm-8.67-2.07a3.734,3.734,0,0,0,2.91-1.23,5.24,5.24,0,0,0,0-6.45,4.057,4.057,0,0,0-5.82,0,5.24,5.24,0,0,0,0,6.45A3.734,3.734,0,0,0,94.15,55.31Zm22.23-12.9a6.864,6.864,0,0,1,3.345.8,5.638,5.638,0,0,1,2.265,2.25,6.761,6.761,0,0,1,.81,3.345V59h-4.65V49.49a2.894,2.894,0,0,0-.93-2.235,3.492,3.492,0,0,0-2.46-.855,3.574,3.574,0,0,0-2.49.84,2.883,2.883,0,0,0-.93,2.25V59h-4.65V42.71h3.33l1.2,2.1a5.675,5.675,0,0,1,2.19-1.785A6.95,6.95,0,0,1,116.38,42.41Z" transform="translate(500 1496)" fill="#2b2b2b"/>
    <path id="Tracé_3" data-name="Tracé 3" d="M536.736,1421.609v-45.494L559.621,1399l22.885-22.885L605.39,1399l22.885-22.885v45.494Z" transform="translate(-11.506 4)" fill="#5b5a61"/>
  </g>
</svg>
