<?xml version="1.0" encoding="UTF-8"?><svg id="Calque_2" xmlns="http://www.w3.org/2000/svg" viewBox="0 0 45.93 45.93"><defs><style>.cls-1{fill:#fff;}.cls-2{fill:#82909e;}</style></defs><g id="Calque_1-2"><circle class="cls-2" cx="22.97" cy="22.97" r="22.97"/><g id="_6aXq0K.tif"><g><path class="cls-1" d="M25.07,21.33c.05-.06,.08-.09,.1-.12,.9-1.36,2.19-2.01,3.8-2.08,.9-.04,1.78,.05,2.62,.38,1.16,.45,1.9,1.31,2.31,2.46,.3,.83,.45,1.69,.46,2.57,.03,2.85,.03,5.7,.05,8.55,0,.22-.08,.27-.28,.26-1.28,0-2.56,0-3.83,0-.24,0-.29-.08-.29-.3,0-2.28,.01-4.56,0-6.84,0-.53-.04-1.07-.14-1.58-.24-1.22-1.08-1.8-2.32-1.67-1.33,.14-1.99,.8-2.21,2.22-.06,.42-.09,.85-.09,1.27,0,2.2,0,4.4,0,6.59q0,.31-.31,.31c-1.25,0-2.51,0-3.76,0-.22,0-.28-.07-.28-.28,0-4.45,0-8.9,0-13.35,0-.22,.08-.28,.29-.28,1.2,0,2.4,.01,3.6,0,.24,0,.3,.07,.29,.3-.02,.44,0,.88,0,1.32,0,.07,0,.15,.01,.26Z"/><path class="cls-1" d="M13.88,26.4c0-2.21,0-4.43,0-6.64,0-.3,0-.3,.3-.3,1.25,0,2.51,0,3.76,0,.23,0,.3,.06,.3,.29,0,4.44,0,8.88,0,13.32,0,.23-.06,.3-.3,.3-1.26-.01-2.52-.01-3.79,0-.22,0-.28-.06-.28-.28,0-2.23,0-4.46,0-6.68Z"/><path class="cls-1" d="M16.07,12.57c1.39,0,2.56,1.16,2.54,2.54-.01,1.38-1.16,2.53-2.54,2.53-1.39,0-2.54-1.16-2.53-2.55,0-1.39,1.15-2.52,2.53-2.52Z"/></g></g></g></svg>