<?xml version="1.0" encoding="UTF-8"?><svg id="Calque_2" xmlns="http://www.w3.org/2000/svg" viewBox="0 0 45.93 45.93"><defs><style>.cls-1{fill:#fff;}</style></defs><g id="Calque_1-2"><g><circle cx="22.97" cy="22.97" r="22.97"/><g><path class="cls-1" d="M23.04,12.26c1.46,0,2.92-.01,4.38,0,3.55,.04,6.19,2.63,6.25,6.19,.05,2.99,.04,5.98,0,8.97-.05,3.55-2.66,6.17-6.22,6.22-3.02,.04-6.05,.05-9.07,0-3.51-.06-6.1-2.69-6.13-6.18-.03-3.02-.03-6.05,0-9.07,.04-3.43,2.66-6.04,6.1-6.12,1.56-.03,3.13,0,4.69,0Zm8.65,10.86h0c0-1.46,0-2.92,0-4.38,0-2.75-1.64-4.47-4.36-4.5-2.92-.03-5.84-.04-8.76,0-2.68,.03-4.35,1.69-4.39,4.38-.04,2.95-.04,5.91,0,8.86,.03,2.56,1.72,4.24,4.27,4.27,3.02,.03,6.05,.02,9.07,0,2.41-.02,4.11-1.71,4.16-4.14,.03-1.49,0-2.99,0-4.48Z"/><path class="cls-1" d="M28.5,23c0,3.08-2.47,5.56-5.56,5.56-3.03,0-5.5-2.45-5.52-5.48-.02-3.13,2.39-5.58,5.49-5.6,3.09-.02,5.59,2.45,5.58,5.52Zm-5.61,3.64c2,.03,3.66-1.6,3.7-3.61,.03-1.91-1.62-3.59-3.56-3.64-1.98-.04-3.68,1.62-3.69,3.6,0,1.95,1.62,3.61,3.55,3.64Z"/><path class="cls-1" d="M28.72,15.97c.77,.09,1.25,.49,1.23,1.28-.02,.76-.46,1.22-1.24,1.26-.73,.04-1.33-.59-1.27-1.33,.06-.78,.52-1.16,1.28-1.21Z"/></g></g></g></svg>